<svg xmlns="http://www.w3.org/2000/svg" width="18" height="18"><path d="M0 0 C3.55247432 0.87379409 4.94828114 2.4927342 6.9375 5.4765625 C7.63597125 8.3162489 7.63597125 10.6368761 6.9375 13.4765625 C4.94828114 16.4603908 3.55247432 18.07933091 0 18.953125 C-3.92313492 19.23547183 -5.73362371 18.69581336 -9.0625 16.4765625 C-11.28175086 13.14768621 -11.82140933 11.33719742 -11.5390625 7.4140625 C-10.07519871 1.46261629 -5.59135555 -0.40240816 0 0 Z M-6.875 4.6015625 C-9.36589948 7.28916213 -9.36589948 7.28916213 -9.125 10.6015625 C-8.24956667 13.49301899 -8.24956667 13.49301899 -6.375 15.4140625 C-3.16306066 16.88981841 -1.39775198 16.54100462 1.9375 15.4765625 C4.0160608 13.89960618 4.0160608 13.89960618 4.9375 11.4765625 C4.86527005 7.93729491 4.60944991 6.1716831 2.125 3.6015625 C-1.66505582 1.65239094 -3.55154611 2.09050845 -6.875 4.6015625 Z " fill="white" transform="translate(11.0625,-0.4765625)"/><path d="M0 0 C0 1.98 0 3.96 0 6 C1.98 6 3.96 6 6 6 C5.375 8.4375 5.375 8.4375 4 11 C1.125 12.0625 1.125 12.0625 -2 12 C-4.4375 10.4375 -4.4375 10.4375 -6 8 C-5.9375 4.875 -5.9375 4.875 -5 2 C-2 0 -2 0 0 0 Z " fill="white" transform="translate(9,3)"/></svg>